<svg width="60" height="88" viewBox="0 0 60 88" fill="none" xmlns="http://www.w3.org/2000/svg">
<path d="M36.3516 30.8721L33.9248 32.8483C31.6076 34.7362 28.2158 34.3677 26.3464 32.0275L25.8337 31.3854C23.9643 29.0452 24.3293 25.6198 26.6464 23.7318L29.0733 21.7557C31.3905 19.8677 34.7822 20.2362 36.6516 22.5764L37.1643 23.2185C39.0315 25.5587 38.6688 28.9864 36.3516 30.8721Z" fill="url(#paint0_radial)"/>
<path d="M34.5314 21.3125C34.4978 21.2447 32.7963 17.731 32.7963 17.731L30.3784 21.005L34.5314 21.3125Z" fill="url(#paint1_radial)"/>
<path d="M25.2471 25.6876L25.3008 29.8954C25.2359 29.8569 21.8643 27.9305 21.8643 27.9305" fill="url(#paint2_radial)"/>
<path d="M33.3202 27.3766C35.0834 27.3766 36.5128 25.933 36.5128 24.1523C36.5128 22.3717 35.0834 20.9281 33.3202 20.9281C31.557 20.9281 30.1277 22.3717 30.1277 24.1523C30.1277 25.933 31.557 27.3766 33.3202 27.3766Z" fill="url(#paint3_linear)"/>
<path d="M28.1823 31.5618C29.9455 31.5618 31.3748 30.1182 31.3748 28.3375C31.3748 26.5568 29.9455 25.1133 28.1823 25.1133C26.4191 25.1133 24.9897 26.5568 24.9897 28.3375C24.9897 30.1182 26.4191 31.5618 28.1823 31.5618Z" fill="url(#paint4_linear)"/>
<path d="M28.1822 30.784C29.52 30.784 30.6045 29.6886 30.6045 28.3375C30.6045 26.9864 29.52 25.8911 28.1822 25.8911C26.8443 25.8911 25.7598 26.9864 25.7598 28.3375C25.7598 29.6886 26.8443 30.784 28.1822 30.784Z" fill="url(#paint5_radial)"/>
<path d="M31.5291 25.6966C30.6895 24.6453 30.8529 23.1055 31.894 22.2576C32.935 21.4097 34.4597 21.5748 35.2992 22.6262C36.1388 23.6775 35.9753 25.2173 34.9343 26.0652C33.8932 26.9131 32.3709 26.748 31.5291 25.6966Z" fill="url(#paint6_radial)"/>
<path d="M39.1569 28.394H32.1897V34.7408H39.1569V28.394Z" fill="url(#paint7_radial)"/>
<path d="M49.9254 44.6373C49.9254 18.5179 38.2634 5.62997 32.7828 1.01746C31.1731 -0.339155 28.8269 -0.339155 27.2172 1.01746C21.7366 5.62997 10.0746 18.5179 10.0746 44.6373C10.0746 44.6373 0 46.8983 0 58.6557C0 66.3364 2.5791 70.7364 4.36791 72.864C5.16269 73.8092 6.60895 73.7933 7.3903 72.8392L16.791 61.3689L19.3209 67.0283C19.6881 67.8491 20.4985 68.3782 21.3896 68.3782H21.7164H38.2836H38.6082C39.5015 68.3782 40.3097 67.8491 40.6769 67.0283L43.2067 61.3689L52.6052 72.8392C53.3866 73.7933 54.8351 73.8092 55.6276 72.864C57.4164 70.7364 59.9955 66.3364 59.9955 58.6557C60 46.8983 49.9254 44.6373 49.9254 44.6373ZM30 33.7843C25.6724 33.7843 22.1642 30.2413 22.1642 25.8707C22.1642 21.5002 25.6724 17.9571 30 17.9571C34.3276 17.9571 37.8358 21.5002 37.8358 25.8707C37.8358 30.2413 34.3276 33.7843 30 33.7843Z" fill="white"/>
<path d="M37.7977 69.9609L30 70.1282L22.2022 69.9609C22.2022 69.9609 18.385 73.5582 24.4746 81.2728C26.7112 84.1059 28.153 85.7089 29.0015 86.5772C29.5522 87.1424 30.45 87.1424 31.0007 86.5772C31.8492 85.7067 33.291 84.1059 35.5276 81.2728C41.6149 73.5582 37.7977 69.9609 37.7977 69.9609Z" fill="white"/>
<path d="M39.9918 54.267C39.9918 54.267 40.2873 54.4027 40.5157 54.7554C40.5694 54.4841 40.7037 52.7725 40.5291 52.7454C40.3545 52.7182 38.8075 53.0302 38.8075 53.0302C38.2299 52.8381 37.7239 52.7386 37.303 52.6888C37.1575 52.6685 36.956 52.6504 36.703 52.6527C36.45 52.6504 36.2485 52.6685 36.103 52.6888C35.6821 52.7363 35.1761 52.8381 34.5985 53.0302C34.5985 53.0302 33.0515 52.7182 32.8769 52.7454C32.7022 52.7725 32.8903 54.4163 32.944 54.6876C33.1724 54.4027 33.4142 54.267 33.4142 54.267C33.4142 54.267 32.6373 55.1918 32.5522 56.3133C32.7112 56.7203 33.8978 59.5058 36.7097 59.5058C39.6022 59.5058 40.8269 56.5575 40.9343 56.2839C40.8269 55.1714 39.9918 54.267 39.9918 54.267ZM37.9522 57.7784C37.6366 58.0972 37.2224 58.2555 36.7119 58.2555C36.2015 58.2555 35.794 58.095 35.4873 57.7716C35.1806 57.4483 35.0284 57.0413 35.0284 56.5484C35.0284 56.0261 35.1828 55.6033 35.494 55.28C35.8052 54.9567 36.2217 54.7961 36.7411 54.7961C37.2605 54.7961 37.6724 54.968 37.9724 55.3116C38.2724 55.6553 38.4246 56.0623 38.4246 56.5349C38.4269 57.0458 38.2679 57.4619 37.9522 57.7784Z" fill="black"/>
<path d="M40.9702 56.5652C40.9702 57.2119 40.8582 57.7975 40.6344 58.3265C40.4105 58.8556 40.1217 59.3915 39.7679 59.9341L37.1642 63.857H34.0747L36.7567 60.1037L36.7881 60.0585C36.6762 60.0992 36.553 60.1308 36.4164 60.1512C36.2799 60.1715 36.15 60.1829 36.0291 60.1829C35.5523 60.1829 35.1023 60.0992 34.6747 59.9296C34.2493 59.76 33.8732 59.5204 33.5485 59.2061C33.2239 58.8941 32.9664 58.5187 32.7739 58.0824C32.5814 57.646 32.4851 57.1621 32.4851 56.6285C32.4851 56.0135 32.597 55.4596 32.8187 54.9666C33.0426 54.4737 33.3448 54.06 33.7299 53.7208C34.115 53.3817 34.5672 53.1239 35.0821 52.943C35.5993 52.7644 36.1456 52.674 36.7254 52.674C37.3142 52.674 37.865 52.7644 38.3821 52.943C38.8993 53.1216 39.347 53.3817 39.7276 53.7208C40.1082 54.06 40.4082 54.4692 40.6321 54.9508C40.8582 55.4302 40.9702 55.9705 40.9702 56.5652ZM38.4269 56.5335C38.4269 56.061 38.2769 55.654 37.9747 55.3103C37.6747 54.9666 37.2627 54.7948 36.7433 54.7948C36.2239 54.7948 35.8075 54.9553 35.4963 55.2787C35.1851 55.602 35.0306 56.0248 35.0306 56.5471C35.0306 57.04 35.1829 57.447 35.4896 57.7703C35.7963 58.0937 36.2038 58.2542 36.7142 58.2542C37.2247 58.2542 37.6366 58.0959 37.9545 57.7771C38.2679 57.4628 38.4269 57.0468 38.4269 56.5335Z" fill="black"/>
<defs>
<radialGradient id="paint0_radial" cx="0" cy="0" r="1" gradientUnits="userSpaceOnUse" gradientTransform="translate(31.4992 27.3033) rotate(-39.164) scale(6.42359 6.43674)">
<stop stop-color="#0C0B0B"/>
<stop offset="1"/>
</radialGradient>
<radialGradient id="paint1_radial" cx="0" cy="0" r="1" gradientUnits="userSpaceOnUse" gradientTransform="translate(32.0485 20.3197) rotate(-26.3024) scale(1.89246 1.90391)">
<stop stop-color="#0C0B0B"/>
<stop offset="1"/>
</radialGradient>
<radialGradient id="paint2_radial" cx="0" cy="0" r="1" gradientUnits="userSpaceOnUse" gradientTransform="translate(24.4683 27.3306) rotate(119.289) scale(1.90303 1.89332)">
<stop stop-color="#0C0B0B"/>
<stop offset="1"/>
</radialGradient>
<linearGradient id="paint3_linear" x1="31.3164" y1="21.6426" x2="35.374" y2="26.624" gradientUnits="userSpaceOnUse">
<stop stop-color="#C4CEDF"/>
<stop offset="0.9996" stop-color="#F4F6F9"/>
</linearGradient>
<linearGradient id="paint4_linear" x1="26.1786" y1="25.8275" x2="30.2362" y2="30.809" gradientUnits="userSpaceOnUse">
<stop stop-color="#C4CEDF"/>
<stop offset="0.9996" stop-color="#F4F6F9"/>
</linearGradient>
<radialGradient id="paint5_radial" cx="0" cy="0" r="1" gradientUnits="userSpaceOnUse" gradientTransform="translate(28.1832 28.3378) rotate(-39.1639) scale(2.43156 2.43654)">
<stop stop-color="#0C0B0B"/>
<stop offset="1"/>
</radialGradient>
<radialGradient id="paint6_radial" cx="0" cy="0" r="1" gradientUnits="userSpaceOnUse" gradientTransform="translate(33.4153 24.161) rotate(-39.1639) scale(2.43156 2.43654)">
<stop stop-color="#0C0B0B"/>
<stop offset="1"/>
</radialGradient>
<radialGradient id="paint7_radial" cx="0" cy="0" r="1" gradientUnits="userSpaceOnUse" gradientTransform="translate(35.6732 31.5675) scale(3.10137 3.69314)">
<stop stop-color="#0C0B0B"/>
<stop offset="1"/>
</radialGradient>
</defs>
</svg>
